<svg width="192" height="68" viewBox="0 0 192 68" fill="none" xmlns="http://www.w3.org/2000/svg">
<path d="M131.06 19.7391V29.2761H102.806V19.7391H131.06ZM109.274 65.5165V16.431C109.274 13.1129 109.919 10.3611 111.211 8.17556C112.522 5.99 114.31 4.35084 116.575 3.25806C118.84 2.16528 121.413 1.6189 124.294 1.6189C126.241 1.6189 128.02 1.76791 129.629 2.06595C131.258 2.36397 132.47 2.6322 133.265 2.87063L131 12.4076C130.503 12.2486 129.887 12.0996 129.152 11.9605C128.437 11.8215 127.702 11.7519 126.947 11.7519C125.079 11.7519 123.778 12.189 123.043 13.0633C122.307 13.9176 121.94 15.1197 121.94 16.6694V65.5165H109.274Z" fill="#818CF8"/>
<path d="M69.0987 52.3436L69.1285 37.1143H70.9763L85.6393 19.7391H100.213L80.5132 42.747H77.5031L69.0987 52.3436ZM57.5947 65.5165V4.47998H70.2908V65.5165H57.5947ZM86.2056 65.5165L72.7346 45.5783L81.1987 36.6076L101.077 65.5165H86.2056Z" fill="#818CF8"/>
<path d="M35.9507 22.0342C35.7122 19.6301 34.689 17.7625 32.881 16.4313C31.0729 15.1001 28.6191 14.4345 25.5196 14.4345C23.4135 14.4345 21.6353 14.7325 20.1849 15.3285C18.7345 15.9047 17.6218 16.7094 16.8469 17.7426C16.0919 18.7758 15.7144 19.948 15.7144 21.2593C15.6747 22.3521 15.9032 23.3058 16.3999 24.1204C16.9165 24.935 17.6218 25.6404 18.5159 26.2364C19.41 26.8126 20.4432 27.3193 21.6154 27.7564C22.7877 28.1736 24.0394 28.5313 25.3706 28.8293L30.8543 30.1406C33.5167 30.7367 35.9606 31.5314 38.1859 32.5249C40.4112 33.5183 42.3384 34.7402 43.9677 36.1906C45.5969 37.6411 46.8586 39.3498 47.7526 41.3168C48.6666 43.2838 49.1335 45.5388 49.1534 48.082C49.1335 51.8173 48.1798 55.0559 46.2923 57.7978C44.4246 60.5198 41.7225 62.6358 38.1859 64.1458C34.6691 65.636 30.4272 66.3811 25.46 66.3811C20.5326 66.3811 16.2409 65.6261 12.5851 64.116C8.94917 62.606 6.10795 60.3708 4.06148 57.4104C2.03487 54.4301 0.971902 50.7444 0.872559 46.3535H13.36C13.4991 48.3999 14.0852 50.1086 15.1184 51.4796C16.1714 52.8306 17.5721 53.8539 19.3206 54.5493C21.0889 55.2248 23.0857 55.5626 25.311 55.5626C27.4965 55.5626 29.394 55.2447 31.0034 54.6089C32.6326 53.9731 33.8943 53.0889 34.7883 51.9564C35.6824 50.8239 36.1295 49.5225 36.1295 48.0522C36.1295 46.6813 35.7222 45.5289 34.9076 44.5951C34.1128 43.6613 32.9406 42.8665 31.3908 42.2108C29.8609 41.5552 27.9833 40.9591 25.758 40.4227L19.112 38.7537C13.966 37.502 9.90286 35.5449 6.92256 32.8825C3.94226 30.2201 2.46205 26.6338 2.48192 22.1236C2.46205 18.4281 3.44555 15.1994 5.43241 12.4377C7.43915 9.67589 10.1909 7.52014 13.6878 5.97039C17.1847 4.42063 21.1584 3.64575 25.609 3.64575C30.1391 3.64575 34.0929 4.42063 37.4706 5.97039C40.8682 7.52014 43.5107 9.67589 45.3982 12.4377C47.2857 15.1994 48.2593 18.3983 48.3189 22.0342H35.9507Z" fill="#818CF8"/>
<path d="M159.857 2.8562L191.127 34.0003L181.746 43.3435L150.476 12.1994L159.857 2.8562Z" fill="#818CF8"/>
<path d="M150.476 55.8011L181.746 24.657L191.127 34.0002L159.857 65.1443L150.476 55.8011Z" fill="#818CF8"/>
</svg>
